<svg xmlns="http://www.w3.org/2000/svg" xmlns:xlink="http://www.w3.org/1999/xlink" width="500" zoomAndPan="magnify" viewBox="0 0 375 374.999991" height="500" preserveAspectRatio="xMidYMid meet" version="1.0"><defs><g/></defs><path fill="#005284" d="M 60.449219 60.449219 C 27.976562 93 7.875 137.925781 7.875 187.5 C 7.875 237.074219 27.976562 282 60.523438 314.550781 C 93 347.023438 137.925781 367.199219 187.574219 367.199219 C 237.148438 367.199219 282.074219 347.101562 314.625 314.550781 C 347.101562 282.074219 367.273438 237.148438 367.273438 187.5 C 367.273438 137.851562 347.175781 93 314.625 60.449219 C 282 27.976562 237.074219 7.875 187.5 7.875 C 137.925781 7.875 93 27.976562 60.449219 60.449219 M 0 187.5 C 0 135.75 21 88.875 54.898438 54.898438 C 88.875 21 135.75 0 187.5 0 C 239.25 0 286.125 21 320.101562 54.898438 C 354 88.875 375 135.75 375 187.5 C 375 239.25 354 286.125 320.101562 320.101562 C 286.125 354 239.25 375 187.5 375 C 135.75 375 88.875 354 54.898438 320.101562 C 21 286.125 0 239.25 0 187.5 Z M 0 187.5 " fill-opacity="1" fill-rule="nonzero"/><path fill="#005284" d="M 329.851562 112.875 C 339.675781 132.300781 353.175781 176.476562 341.851562 235.351562 C 346.726562 141.601562 319.5 132.976562 319.5 132.976562 C 340.125 250.273438 291.523438 289.050781 291.523438 289.050781 C 312.148438 244.351562 301.351562 219.375 301.351562 219.375 C 283.648438 235.050781 278.25 273.824219 232.125 304.273438 C 186 334.726562 187.425781 371.023438 187.425781 371.023438 C 288.824219 371.023438 371.023438 288.824219 371.023438 187.425781 C 371.023438 168.300781 368.101562 149.773438 362.625 132.449219 C 356.699219 124.125 352.199219 129.75 352.199219 129.75 C 347.398438 110.175781 329.851562 112.875 329.851562 112.875 " fill-opacity="1" fill-rule="nonzero"/><path fill="#005284" d="M 45.148438 112.875 C 35.324219 132.300781 21.824219 176.476562 33.148438 235.351562 C 28.273438 141.601562 55.5 132.976562 55.5 132.976562 C 34.875 250.273438 83.476562 289.050781 83.476562 289.050781 C 62.851562 244.351562 73.648438 219.375 73.648438 219.375 C 91.351562 235.050781 96.75 273.824219 142.875 304.273438 C 189 334.726562 187.574219 371.023438 187.574219 371.023438 C 86.101562 371.101562 3.898438 288.898438 3.898438 187.5 C 3.898438 168.375 6.824219 149.851562 12.300781 132.523438 C 18.226562 124.199219 22.648438 129.824219 22.648438 129.824219 C 27.601562 110.175781 45.148438 112.875 45.148438 112.875 " fill-opacity="1" fill-rule="nonzero"/><g fill="#005284" fill-opacity="1"><g transform="translate(82.295111, 269.579748)"><g><path d="M 106.21875 3.359375 C 150.0625 3.359375 185.640625 -23.203125 196.46875 -63.421875 L 172.484375 -63.421875 C 163.203125 -36.359375 137.6875 -19.34375 107 -19.34375 C 66.78125 -19.34375 38.15625 -48.46875 38.15625 -90.234375 C 38.15625 -132.015625 66.78125 -161.140625 107 -161.140625 C 136.90625 -161.140625 161.40625 -145.15625 170.6875 -119.109375 L 194.921875 -119.109375 C 183.0625 -158.828125 148.765625 -183.828125 106.21875 -183.828125 C 53.109375 -183.828125 14.953125 -144.640625 14.953125 -90.234375 C 14.953125 -35.84375 53.109375 3.359375 106.21875 3.359375 Z M 106.21875 3.359375 "/></g></g></g></svg>