<svg xmlns="http://www.w3.org/2000/svg" xmlns:xlink="http://www.w3.org/1999/xlink" width="500" zoomAndPan="magnify" viewBox="0 0 375 374.999991" height="500" preserveAspectRatio="xMidYMid meet" version="1.0"><defs><g/><clipPath id="e8840e135e"><path d="M 41.746094 14.492188 L 333.496094 14.492188 L 333.496094 306 L 41.746094 306 Z M 41.746094 14.492188 " clip-rule="nonzero"/></clipPath></defs><g fill="#005284" fill-opacity="1"><g transform="translate(50.028848, 350.96345)"><g><path d="M 16.0625 0.5 C 22.6875 0.5 28.0625 -3.515625 29.703125 -9.59375 L 26.078125 -9.59375 C 24.671875 -5.5 20.8125 -2.921875 16.171875 -2.921875 C 10.09375 -2.921875 5.765625 -7.328125 5.765625 -13.640625 C 5.765625 -19.953125 10.09375 -24.359375 16.171875 -24.359375 C 20.703125 -24.359375 24.40625 -21.953125 25.8125 -18.015625 L 29.46875 -18.015625 C 27.671875 -24.015625 22.5 -27.796875 16.0625 -27.796875 C 8.03125 -27.796875 2.265625 -21.875 2.265625 -13.640625 C 2.265625 -5.421875 8.03125 0.5 16.0625 0.5 Z M 16.0625 0.5 "/></g></g></g><g fill="#005284" fill-opacity="1"><g transform="translate(79.484892, 350.96345)"><g><path d="M 10.25 0.3125 C 13.53125 0.3125 16.09375 -0.734375 17.9375 -2.8125 L 18.28125 0 L 20.96875 0 L 20.96875 -12.859375 C 20.96875 -17.546875 17.421875 -20.734375 12.125 -20.734375 C 7.71875 -20.734375 4.40625 -18.359375 3.515625 -14.46875 L 6.828125 -14.46875 C 7.484375 -16.453125 9.546875 -17.703125 12.15625 -17.703125 C 15.59375 -17.703125 17.703125 -15.78125 17.703125 -12.625 L 17.703125 -11.890625 L 9.4375 -11.890625 C 5.21875 -11.890625 2.453125 -9.515625 2.453125 -5.84375 C 2.453125 -2.03125 5.375 0.3125 10.25 0.3125 Z M 5.734375 -5.890625 C 5.734375 -7.796875 7.296875 -9 9.546875 -9 L 17.734375 -9 C 17.625 -5.265625 14.578125 -2.609375 10.375 -2.609375 C 7.53125 -2.609375 5.734375 -3.890625 5.734375 -5.890625 Z M 5.734375 -5.890625 "/></g></g></g><g fill="#005284" fill-opacity="1"><g transform="translate(101.303753, 350.96345)"><g><path d="M 3.625 0 L 6.90625 0 L 6.90625 -9.390625 C 6.90625 -15.171875 9.78125 -17.1875 13.453125 -17.1875 L 15.4375 -17.1875 L 15.4375 -20.234375 L 13.609375 -20.234375 C 10.171875 -20.234375 8.140625 -19.140625 6.703125 -16.71875 L 6.3125 -20.234375 L 3.625 -20.234375 Z M 3.625 0 "/></g></g></g><g fill="#005284" fill-opacity="1"><g transform="translate(115.952992, 350.96345)"><g><path d="M 12.390625 0.5 C 16.953125 0.5 20.703125 -1.953125 22.34375 -5.890625 L 18.640625 -5.890625 C 17.390625 -3.75 15.09375 -2.578125 12.4375 -2.578125 C 8.578125 -2.578125 5.84375 -4.984375 5.34375 -8.8125 L 22.84375 -8.8125 C 23.078125 -15.859375 18.90625 -20.734375 12.4375 -20.734375 C 6.3125 -20.734375 2.03125 -16.375 2.03125 -10.140625 C 2.03125 -3.859375 6.28125 0.5 12.390625 0.5 Z M 5.375 -11.6875 C 5.96875 -15.28125 8.6875 -17.65625 12.4375 -17.65625 C 16.140625 -17.65625 18.875 -15.40625 19.5625 -11.6875 Z M 5.375 -11.6875 "/></g></g></g><g fill="#005284" fill-opacity="1"><g transform="translate(138.39528, 350.96345)"><g/></g></g><g fill="#005284" fill-opacity="1"><g transform="translate(145.719066, 350.96345)"><g><path d="M 16.0625 0.5 C 22.6875 0.5 28.0625 -3.515625 29.703125 -9.59375 L 26.078125 -9.59375 C 24.671875 -5.5 20.8125 -2.921875 16.171875 -2.921875 C 10.09375 -2.921875 5.765625 -7.328125 5.765625 -13.640625 C 5.765625 -19.953125 10.09375 -24.359375 16.171875 -24.359375 C 20.703125 -24.359375 24.40625 -21.953125 25.8125 -18.015625 L 29.46875 -18.015625 C 27.671875 -24.015625 22.5 -27.796875 16.0625 -27.796875 C 8.03125 -27.796875 2.265625 -21.875 2.265625 -13.640625 C 2.265625 -5.421875 8.03125 0.5 16.0625 0.5 Z M 16.0625 0.5 "/></g></g></g><g fill="#005284" fill-opacity="1"><g transform="translate(175.17511, 350.96345)"><g><path d="M 3.625 0 L 6.90625 0 L 6.90625 -10.328125 C 6.90625 -14.78125 9.59375 -17.625 13.40625 -17.625 C 16.921875 -17.625 19.109375 -15.125 19.109375 -11.078125 L 19.109375 0 L 22.375 0 L 22.375 -11.390625 C 22.375 -17.15625 19.1875 -20.734375 13.84375 -20.734375 C 11.234375 -20.734375 8.65625 -19.765625 6.90625 -17.578125 L 6.90625 -28.84375 L 3.625 -28.84375 Z M 3.625 0 "/></g></g></g><g fill="#005284" fill-opacity="1"><g transform="translate(198.435672, 350.96345)"><g><path d="M 12.390625 0.5 C 16.953125 0.5 20.703125 -1.953125 22.34375 -5.890625 L 18.640625 -5.890625 C 17.390625 -3.75 15.09375 -2.578125 12.4375 -2.578125 C 8.578125 -2.578125 5.84375 -4.984375 5.34375 -8.8125 L 22.84375 -8.8125 C 23.078125 -15.859375 18.90625 -20.734375 12.4375 -20.734375 C 6.3125 -20.734375 2.03125 -16.375 2.03125 -10.140625 C 2.03125 -3.859375 6.28125 0.5 12.390625 0.5 Z M 5.375 -11.6875 C 5.96875 -15.28125 8.6875 -17.65625 12.4375 -17.65625 C 16.140625 -17.65625 18.875 -15.40625 19.5625 -11.6875 Z M 5.375 -11.6875 "/></g></g></g><g fill="#005284" fill-opacity="1"><g transform="translate(220.87795, 350.96345)"><g><path d="M 3.625 0 L 6.90625 0 L 6.90625 -10.765625 C 6.90625 -14.9375 9.234375 -17.625 12.75 -17.625 C 16.140625 -17.625 18.28125 -15.046875 18.28125 -11.03125 L 18.28125 0 L 21.5625 0 L 21.5625 -10.765625 C 21.5625 -14.9375 23.890625 -17.625 27.40625 -17.625 C 30.796875 -17.625 32.9375 -15.046875 32.9375 -11.03125 L 32.9375 0 L 36.21875 0 L 36.21875 -11.578125 C 36.21875 -17.234375 32.9375 -20.734375 27.828125 -20.734375 C 24.5625 -20.734375 21.90625 -19.34375 20.3125 -16.765625 C 18.953125 -19.375 16.453125 -20.734375 13.21875 -20.734375 C 10.40625 -20.734375 8.140625 -19.6875 6.625 -17.703125 L 6.3125 -20.234375 L 3.625 -20.234375 Z M 3.625 0 "/></g></g></g><g fill="#005284" fill-opacity="1"><g transform="translate(257.971135, 350.96345)"><g><path d="M 3.625 0 L 6.90625 0 L 6.90625 -10.21875 C 6.90625 -14.65625 9.59375 -17.625 13.375 -17.625 C 16.921875 -17.625 19.109375 -15.046875 19.109375 -10.953125 L 19.109375 0 L 22.375 0 L 22.375 -11.265625 C 22.375 -17.03125 19.1875 -20.734375 13.796875 -20.734375 C 11.078125 -20.734375 8.421875 -19.6875 6.671875 -17.265625 L 6.3125 -20.234375 L 3.625 -20.234375 Z M 3.625 0 "/></g></g></g><g fill="#005284" fill-opacity="1"><g transform="translate(281.23168, 350.96345)"><g><path d="M 3.625 0 L 6.90625 0 L 6.90625 -20.234375 L 3.625 -20.234375 Z M 2.609375 -26.125 C 2.609375 -24.671875 3.671875 -23.578125 5.265625 -23.578125 C 6.859375 -23.578125 7.875 -24.671875 7.875 -26.125 C 7.875 -27.59375 6.859375 -28.6875 5.265625 -28.6875 C 3.671875 -28.6875 2.609375 -27.59375 2.609375 -26.125 Z M 2.609375 -26.125 "/></g></g></g><g fill="#005284" fill-opacity="1"><g transform="translate(289.412698, 350.96345)"><g><path d="M 12.359375 0 L 15.40625 0 L 15.40625 -3.15625 L 12.515625 -3.15625 C 9.828125 -3.15625 8.578125 -4.515625 8.578125 -7.453125 L 8.578125 -17.234375 L 15.125 -17.234375 L 15.125 -20.234375 L 8.578125 -20.234375 L 8.578125 -25.265625 L 6.046875 -25.265625 L 5.734375 -22.53125 C 5.5 -20.703125 4.953125 -20.234375 3.078125 -20.234375 L 1.046875 -20.234375 L 1.046875 -17.234375 L 5.296875 -17.234375 L 5.296875 -7.296875 C 5.296875 -2.65625 7.875 0 12.359375 0 Z M 12.359375 0 "/></g></g></g><g fill="#005284" fill-opacity="1"><g transform="translate(304.373659, 350.96345)"><g><path d="M 1.875 0 L 18.71875 0 L 18.71875 -3 L 6.390625 -3 L 18.484375 -17.78125 L 18.484375 -20.234375 L 2.265625 -20.234375 L 2.265625 -17.234375 L 14.03125 -17.234375 L 1.875 -2.453125 Z M 1.875 0 "/></g></g></g><g clip-path="url(#e8840e135e)"><path fill="#005284" d="M 88.738281 61.484375 C 63.492188 86.785156 47.867188 121.707031 47.867188 160.246094 C 47.867188 198.78125 63.492188 233.703125 88.796875 259.003906 C 114.039062 284.25 148.960938 299.933594 187.554688 299.933594 C 226.09375 299.933594 261.015625 284.308594 286.316406 259.003906 C 311.5625 233.761719 327.246094 198.839844 327.246094 160.246094 C 327.246094 121.648438 311.621094 86.785156 286.316406 61.484375 C 260.957031 36.238281 226.035156 20.613281 187.5 20.613281 C 148.960938 20.613281 114.039062 36.238281 88.738281 61.484375 M 41.746094 160.246094 C 41.746094 120.015625 58.070312 83.578125 84.421875 57.167969 C 110.832031 30.816406 147.269531 14.492188 187.5 14.492188 C 227.726562 14.492188 264.164062 30.816406 290.574219 57.167969 C 316.925781 83.578125 333.25 120.015625 333.25 160.246094 C 333.25 200.472656 316.925781 236.910156 290.574219 263.320312 C 264.164062 289.671875 227.726562 305.996094 187.5 305.996094 C 147.269531 305.996094 110.832031 289.671875 84.421875 263.320312 C 58.070312 236.910156 41.746094 200.472656 41.746094 160.246094 Z M 41.746094 160.246094 " fill-opacity="1" fill-rule="nonzero"/></g><path fill="#005284" d="M 298.152344 102.234375 C 305.789062 117.335938 316.285156 151.675781 307.480469 197.441406 C 311.269531 124.5625 290.109375 117.859375 290.109375 117.859375 C 306.140625 209.042969 268.363281 239.183594 268.363281 239.183594 C 284.394531 204.4375 276 185.023438 276 185.023438 C 262.238281 197.207031 258.042969 227.347656 222.1875 251.019531 C 186.332031 274.6875 187.441406 302.90625 187.441406 302.90625 C 266.261719 302.90625 330.160156 239.007812 330.160156 160.1875 C 330.160156 145.320312 327.886719 130.917969 323.628906 117.453125 C 319.023438 110.980469 315.527344 115.351562 315.527344 115.351562 C 311.796875 100.136719 298.152344 102.234375 298.152344 102.234375 " fill-opacity="1" fill-rule="nonzero"/><path fill="#005284" d="M 76.84375 102.234375 C 69.207031 117.335938 58.710938 151.675781 67.515625 197.441406 C 63.726562 124.5625 84.890625 117.859375 84.890625 117.859375 C 68.855469 209.042969 106.636719 239.183594 106.636719 239.183594 C 90.601562 204.4375 98.996094 185.023438 98.996094 185.023438 C 112.757812 197.207031 116.953125 227.347656 152.808594 251.019531 C 188.664062 274.6875 187.554688 302.90625 187.554688 302.90625 C 108.675781 302.964844 44.777344 239.066406 44.777344 160.246094 C 44.777344 145.378906 47.050781 130.976562 51.308594 117.511719 C 55.914062 111.039062 59.351562 115.410156 59.351562 115.410156 C 63.199219 100.136719 76.84375 102.234375 76.84375 102.234375 " fill-opacity="1" fill-rule="nonzero"/><g fill="#005284" fill-opacity="1"><g transform="translate(105.718606, 224.051148)"><g><path d="M 82.578125 2.609375 C 116.640625 2.609375 144.296875 -18.03125 152.71875 -49.296875 L 134.078125 -49.296875 C 126.859375 -28.265625 107.03125 -15.03125 83.171875 -15.03125 C 51.90625 -15.03125 29.65625 -37.671875 29.65625 -70.140625 C 29.65625 -102.609375 51.90625 -125.265625 83.171875 -125.265625 C 106.421875 -125.265625 125.46875 -112.84375 132.671875 -92.59375 L 151.515625 -92.59375 C 142.296875 -123.453125 115.640625 -142.90625 82.578125 -142.90625 C 41.28125 -142.90625 11.625 -112.4375 11.625 -70.140625 C 11.625 -27.859375 41.28125 2.609375 82.578125 2.609375 Z M 82.578125 2.609375 "/></g></g></g></svg>